<?xml version="1.0" ?><!DOCTYPE svg  PUBLIC '-//W3C//DTD SVG 1.1//EN'  'http://www.w3.org/Graphics/SVG/1.1/DTD/svg11.dtd'><svg height="157.564px" id="svg3120" style="enable-background:new 0 0 122.498 157.564;" version="1.1" viewBox="0 0 122.498 157.564" width="122.498px" xml:space="preserve" xmlns="http://www.w3.org/2000/svg" xmlns:cc="http://creativecommons.org/ns#" xmlns:dc="http://purl.org/dc/elements/1.1/" xmlns:inkscape="http://www.inkscape.org/namespaces/inkscape" xmlns:rdf="http://www.w3.org/1999/02/22-rdf-syntax-ns#" xmlns:sodipodi="http://sodipodi.sourceforge.net/DTD/sodipodi-0.dtd" xmlns:svg="http://www.w3.org/2000/svg" xmlns:xlink="http://www.w3.org/1999/xlink"><g id="layer7" transform="translate(-273.27313,-435.95455)"><path d="M286.594,555.5v23.156h5.906v-6.031l5.375,5.375h9.062l-7.188-7.188   c0,0,5.171-0.084,5.562-7.562c0-6.861-5.177-7.75-11.156-7.75H286.594z M292.781,561.781h5.094v4.125h-5.094V561.781z" id="path3993"/><path d="M318.344,555.594c-3.234-0.019-7.719,0.281-7.719,6.375v16.094h6.062   v-3.938h5.875v3.844h6.094v-16.875c0-5.293-5.881-5.5-9.031-5.5C319.231,555.594,318.806,555.597,318.344,555.594z    M316.781,561.406h5.688v6.344h-5.688V561.406z" id="path3997"/><rect height="22.152" id="rect4001" width="6.272" x="334.73" y="555.609"/><path d="M347.571,555.903v22.152h15.094v-5.881h-8.919v-16.369L347.571,555.903z" id="path4003"/><path d="M382.661,555.707v5.979h-10.096   v2.156c0,0,2.059,0,4.312,0s6.959-0.098,6.959,6.96c0,7.057-3.234,7.449-9.801,7.449c-6.568,0-7.939,0-7.939,0v-5.392   c0,0,6.371,0,9.115,0s2.896-0.894,2.896-1.672s-1.403-1.141-4.257-1.141s-8.146-1.402-8.146-6.891c0-5.489,2.744-7.548,8.233-7.548   S382.661,555.707,382.661,555.707L382.661,555.707z" id="path4005"/></g><g id="layer6" transform="translate(-273.27313,-435.95455)"><path d="M292.092,548.944h52.146   c0,0-11.566-26.269-8.626-50.381c2.941-24.112,21.956-35.091,32.738-36.267c10.781-1.177,16.663,5.489,16.663,5.489l2.353-3.529   c0,0-15.487-15.683-35.091-13.918c-19.604,1.764-33.13,14.702-41.559,30.385c-8.43,15.684-13.331,26.661-16.663,43.128   S292.092,548.944,292.092,548.944z" id="path3966"/><path d="M281.703,522.675l10.194,0.784l-1.765,10.193l-9.605-1.176   L281.703,522.675z" id="path3968"/><path d="M297.778,501.111l2.745-7.645l-9.018-3.529l-2.94,8.233L297.778,501.111z" id="path3970"/><path d="M310.52,474.842l5.293-6.272l-6.861-4.509l-5.489,6.076L310.52,474.842z" id="path3972"/><path d="M324.438,450.534l4.705,5.685l6.469-3.725l-4.705-5.293L324.438,450.534z" id="path3974"/><path d="M347.375,444.065l1.176,5.686l8.038-0.196l-0.785-5.097L347.375,444.065z" id="path3976"/><path d="M374.624,450.142l-0.196,3.528l5.489,2.94l1.176-1.764L374.624,450.142z" id="path3978"/><path d="M373.447,465.237v2.94l5.293,0.588v-2.353L373.447,465.237z" id="path3980"/><path d="M356.589,467.785l2.548,4.704l3.725-2.94l-0.784-3.137L356.589,467.785z" id="path3982"/><path d="M348.55,473.863l3.921,5.881l-2.353,4.116l-5.685-6.272L348.55,473.863z" id="path3984"/><path d="M340.71,490.133l-2.549,5.097l6.665,5.686l1.568-6.47L340.71,490.133z" id="path3986"/><path d="M337.965,507.972l-0.392,6.861l8.233,3.529l-0.392-6.47L337.965,507.972z" id="path3988"/><path d="M340.317,532.281l1.961,7.058l10.389,0.588l-3.725-7.646H340.317z" id="path3990"/></g></svg>